<svg width="512" height="512" viewBox="0 0 512 512" fill="none" xmlns="http://www.w3.org/2000/svg">
<g clip-path="url(#clip0_11_321)">
<rect width="512" height="512" rx="56" fill="#2E2E2E"/>
<path d="M153.606 354.234C143.765 354.234 134.379 353.049 125.448 350.68C116.7 348.128 108.864 344.301 101.938 339.198C95.0126 334.095 89.454 327.807 85.2623 320.335C81.2528 312.863 79.1569 304.024 78.9746 293.818C78.9746 292.178 79.5214 290.811 80.6149 289.717C81.7084 288.441 83.0753 287.804 84.7155 287.804H110.686C113.055 287.804 114.787 288.441 115.88 289.717C117.156 290.993 118.158 292.724 118.887 294.911C119.799 301.472 121.895 306.849 125.175 311.04C128.456 315.05 132.556 318.057 137.477 320.062C142.58 321.884 148.23 322.796 154.426 322.796C165.908 322.796 174.656 319.059 180.67 311.587C186.867 304.115 189.965 293.727 189.965 280.422V192.396H97.2908C95.286 192.396 93.6458 191.758 92.37 190.482C91.2765 189.206 90.7298 187.657 90.7298 185.835V166.698C90.7298 164.876 91.2765 163.327 92.37 162.051C93.6458 160.775 95.286 160.137 97.2908 160.137H222.223C224.228 160.137 225.868 160.775 227.144 162.051C228.42 163.327 229.058 164.967 229.058 166.972V281.516C229.058 296.643 225.868 309.674 219.489 320.609C213.293 331.544 204.545 339.927 193.245 345.759C182.128 351.409 168.915 354.234 153.606 354.234ZM276.719 351.5C274.896 351.5 273.347 350.862 272.071 349.586C270.796 348.311 270.158 346.761 270.158 344.939V166.972C270.158 164.967 270.796 163.327 272.071 162.051C273.347 160.775 274.896 160.137 276.719 160.137H343.422C361.829 160.137 376.956 162.962 388.802 168.612C400.831 174.262 409.852 182.645 415.867 193.763C422.063 204.88 425.252 218.457 425.435 234.495C425.799 242.514 425.981 249.622 425.981 255.819C425.981 262.015 425.799 269.032 425.435 276.869C425.07 293.818 421.972 307.851 416.14 318.968C410.308 329.903 401.469 338.105 389.623 343.572C377.959 348.857 363.014 351.5 344.789 351.5H276.719ZM308.157 320.062H343.422C353.628 320.062 361.921 318.604 368.299 315.688C374.678 312.772 379.325 308.124 382.241 301.746C385.34 295.185 386.98 286.619 387.162 276.048C387.344 270.581 387.436 265.842 387.436 261.833C387.618 257.641 387.618 253.541 387.436 249.531C387.436 245.339 387.344 240.601 387.162 235.316C386.798 220.371 383.062 209.345 375.954 202.237C368.846 195.129 357.547 191.576 342.055 191.576H308.157V320.062Z" fill="white"/>
</g>
<defs>
<clipPath id="clip0_11_321">
<rect width="512" height="512" fill="white"/>
</clipPath>
</defs>
</svg>
